<svg version="1.1" id="Layer_1" xmlns="http://www.w3.org/2000/svg" xmlns:xlink="http://www.w3.org/1999/xlink" x="0px" y="0px"
	 width="100%" viewBox="0 0 727 136" enable-background="new 0 0 727 136" xml:space="preserve">
<path fill="#FEFEFE" opacity="1.000000" stroke="none" 
	d="
M520.000000,0.999998 
	C589.310791,1.000000 658.621521,1.000000 727.966187,1.000000 
	C727.966187,46.295994 727.966187,91.592018 727.966187,136.944031 
	C485.782867,136.944031 243.565704,136.944031 1.174274,136.944031 
	C1.174274,91.667145 1.174274,46.333668 1.174274,1.000000 
	C46.425579,1.000000 91.744133,1.000000 137.531677,1.412946 
	C138.328979,4.486215 138.657303,7.146536 138.522522,9.876900 
	C102.132263,9.946941 66.205109,9.946941 30.414349,9.946941 
	C30.414349,36.613300 30.414349,62.651344 30.414349,88.591370 
	C203.754333,88.591370 376.678101,88.591370 549.751709,88.591370 
	C549.751709,62.297287 549.751709,36.254616 549.751709,9.804424 
	C539.963440,9.804424 530.489014,9.804424 521.009094,9.403288 
	C520.669128,6.334765 520.334595,3.667381 520.000000,0.999998 
M703.232666,45.019554 
	C703.654663,43.862465 704.076660,42.705372 704.832825,40.631866 
	C705.384216,51.406349 705.882874,61.148880 706.379456,70.852036 
	C710.421204,71.949493 709.641296,69.192924 709.598694,67.148987 
	C709.373169,56.320358 709.233582,45.487370 708.775452,34.668118 
	C708.672424,32.233612 707.621338,27.878407 706.657227,27.778442 
	C702.334351,27.330269 703.630981,31.619991 703.025574,33.944035 
	C700.459167,43.795174 698.258240,53.741508 695.923767,63.653061 
	C692.771973,52.855549 690.350098,42.158775 687.924072,31.462933 
	C687.363708,28.992634 687.011353,26.235397 681.855103,28.457853 
	C681.855103,41.180107 681.815552,54.468700 681.925598,67.756042 
	C681.935059,68.895409 682.937561,70.026550 683.478699,71.161530 
	C684.046692,70.029282 685.090393,68.904152 685.107422,67.763664 
	C685.242737,58.720356 685.182800,49.674126 685.182800,40.628792 
	C685.754150,40.590946 686.325562,40.553101 686.896912,40.515255 
	C689.030518,49.503620 691.101807,58.507725 693.364746,67.463387 
	C693.705017,68.810066 694.941589,69.930260 695.763489,71.155235 
	C696.480469,69.987564 697.536926,68.905945 697.858337,67.638000 
	C699.696411,60.387653 701.359680,53.092976 703.232666,45.019554 
M561.564148,38.754826 
	C565.643433,43.678329 569.898499,48.470150 573.727295,53.581326 
	C575.622742,56.111683 577.505554,59.125778 577.910278,62.121483 
	C578.154663,63.930885 575.987427,67.096153 574.131775,67.926094 
	C571.086487,69.288094 567.830383,68.144684 566.328613,64.615875 
	C565.565247,62.822208 565.182373,60.866631 564.251526,57.708775 
	C562.986389,59.691071 561.617065,60.843594 561.636414,61.972324 
	C561.738770,67.948067 566.811035,72.152420 573.089966,71.795700 
	C579.402527,71.437080 583.493347,67.111542 581.804016,60.679935 
	C580.623108,56.183884 577.195435,52.150711 574.283630,48.277397 
	C572.012512,45.256329 568.539307,43.096752 566.482666,39.973343 
	C565.365967,38.277313 565.282959,34.941044 566.235107,33.137218 
	C567.039246,31.613886 570.187683,30.269575 571.970276,30.602682 
	C573.970703,30.976503 575.808594,33.145054 577.312805,34.882816 
	C578.139160,35.837410 578.133118,37.512520 578.502380,38.862774 
	C579.024719,38.945900 579.547119,39.029022 580.069458,39.112148 
	C580.452820,37.784916 581.319458,36.386909 581.137329,35.142487 
	C580.264221,29.180067 576.515564,26.537779 570.124207,27.048700 
	C564.063416,27.533194 561.357361,30.918308 561.564148,38.754826 
M630.820679,68.253098 
	C633.858765,61.536411 632.907227,56.724243 627.155945,50.700691 
	C623.827881,47.214973 619.944641,44.172386 617.114563,40.337532 
	C615.844727,38.616894 615.736206,35.093628 616.622253,33.047184 
	C617.253662,31.589039 620.711487,30.184872 622.389893,30.645309 
	C624.500427,31.224268 626.215820,33.613903 627.826782,35.461906 
	C628.477539,36.208450 628.401184,37.588768 628.909119,39.767681 
	C630.283264,38.243401 631.881836,37.242546 631.785278,36.447727 
	C631.285889,32.339714 629.853027,28.659550 625.257019,27.385868 
	C620.595581,26.094042 615.086609,27.527719 613.136780,30.970366 
	C610.685974,35.297531 611.036316,39.777325 614.258728,43.529396 
	C617.503052,47.307026 621.372314,50.543781 624.682251,54.271015 
	C626.270935,56.059948 627.692993,58.299438 628.312561,60.574036 
	C629.200989,63.835312 628.519897,67.080368 624.583740,68.058670 
	C620.709717,69.021545 617.657471,67.768639 616.271912,63.727386 
	C615.753967,62.216743 615.423950,60.641651 614.664978,57.819706 
	C613.300232,59.721493 611.758240,61.095482 612.010986,61.646992 
	C613.394409,64.665657 614.548950,68.494888 617.040527,70.142151 
	C621.258240,72.930634 626.232422,72.681549 630.820679,68.253098 
M667.540771,27.329281 
	C665.280518,27.329281 663.020325,27.329281 660.581299,27.329281 
	C660.581299,42.290192 660.581299,56.525684 660.581299,71.279854 
	C665.262573,71.279854 669.717834,71.365990 674.163818,71.201302 
	C674.974854,71.171265 675.747925,70.118156 676.538574,69.537354 
	C675.647522,69.045967 674.779480,68.188545 673.861145,68.130859 
	C670.947205,67.947807 668.014465,68.063156 665.237305,68.063156 
	C665.237305,61.652618 665.237305,55.933975 665.237305,50.071865 
	C667.769226,50.071865 669.934265,50.188454 672.074219,50.008022 
	C672.813782,49.945663 673.491150,49.144798 674.196899,48.681293 
	C673.446045,48.096508 672.738708,47.090115 671.936157,47.007420 
	C669.691895,46.776169 667.408264,46.926929 665.136414,46.926929 
	C665.136414,41.247440 665.136414,36.163933 665.136414,30.668215 
	C668.198914,30.668215 671.003723,30.795334 673.784912,30.594469 
	C674.674622,30.530209 675.501587,29.597481 676.357300,29.062113 
	C675.556274,28.485477 674.809204,27.535353 673.942871,27.410099 
	C672.149841,27.150837 670.293396,27.330368 667.540771,27.329281 
M592.191895,49.438110 
	C593.448425,56.532558 594.704956,63.627007 596.036133,71.142960 
	C598.220825,71.756729 599.138123,70.530396 598.936584,67.717506 
	C598.432129,60.676052 599.296753,53.883183 601.915588,47.209831 
	C604.370728,40.953579 606.149963,34.432083 608.605896,26.857685 
	C601.839233,28.504925 602.787415,33.888279 601.298706,37.390358 
	C599.554810,41.492714 598.535645,45.903118 596.779480,51.535442 
	C594.155762,43.465797 592.181946,36.946083 589.847534,30.558151 
	C589.320862,29.117025 587.538208,28.134920 586.333679,26.941521 
	C585.903625,27.299644 585.473633,27.657768 585.043579,28.015892 
	C587.357056,34.900166 589.670532,41.784435 592.191895,49.438110 
M643.374390,37.535332 
	C643.374390,48.627918 643.374390,59.720501 643.374390,70.964020 
	C645.097534,70.964020 646.325806,70.964020 648.001465,70.964020 
	C648.001465,57.433403 648.001465,44.207630 648.001465,30.675348 
	C650.095581,30.675348 651.774048,30.869539 653.374023,30.599068 
	C654.265686,30.448334 655.026672,29.524475 655.846558,28.949018 
	C654.993164,28.407104 654.152588,27.421305 653.284241,27.396235 
	C648.135315,27.247570 642.977966,27.249306 637.828552,27.388659 
	C636.922668,27.413176 636.040771,28.327150 635.147766,28.830336 
	C636.094604,29.447531 636.971008,30.374706 638.004700,30.609364 
	C639.559753,30.962381 641.224792,30.830730 642.688843,30.898041 
	C642.978699,31.491821 643.225769,31.773314 643.240967,32.066833 
	C643.318420,33.558815 643.335693,35.053909 643.374390,37.535332 
M247.958771,123.597519 
	C250.934570,125.872910 251.386002,125.822945 252.307297,122.600639 
	C253.496918,118.439919 254.503326,114.226822 255.588638,110.036278 
	C257.722992,114.339554 258.726196,118.638412 260.026611,122.845406 
	C260.319336,123.792313 261.649292,124.418594 262.501770,125.192474 
	C263.161102,124.402618 264.177917,123.707222 264.416046,122.806053 
	C265.306641,119.435852 265.989197,116.007454 266.659668,112.583237 
	C267.257782,109.528740 267.736908,106.450951 268.268555,103.383438 
	C267.557892,103.242416 266.847260,103.101402 266.136627,102.960381 
	C264.901917,108.487099 263.667206,114.013817 262.192749,120.613754 
	C260.325470,114.033134 258.729065,108.407127 257.132690,102.781128 
	C256.467499,102.822334 255.802322,102.863548 255.137146,102.904762 
	C253.591446,108.504189 252.045761,114.103615 250.398605,120.070618 
	C247.567017,114.570663 249.351669,107.734375 245.297836,103.050705 
	C244.777664,103.200294 244.257477,103.349884 243.737305,103.499474 
	C245.101257,109.925629 246.465210,116.351784 247.958771,123.597519 
M296.892548,113.523132 
	C296.892548,117.417206 296.892548,121.311287 296.892548,125.205360 
	C297.677307,125.188217 298.462067,125.171066 299.246826,125.153923 
	C299.246826,120.484467 299.246826,115.815018 299.246826,111.145561 
	C299.682770,111.112656 300.118683,111.079742 300.554626,111.046837 
	C302.235199,115.113167 303.915771,119.179497 306.100250,124.465096 
	C308.270447,119.014847 309.884735,114.960762 311.498993,110.906685 
	C312.085541,111.024185 312.672089,111.141693 313.258636,111.259193 
	C313.258636,115.882614 313.258636,120.506035 313.258636,125.129456 
	C313.746307,125.089615 314.234009,125.049767 314.721680,125.009926 
	C314.721680,117.783302 314.721680,110.556686 314.721680,101.869858 
	C308.786377,106.533272 309.597107,113.446945 305.844696,118.424576 
	C304.622253,115.214279 303.499054,112.344696 302.435059,109.453316 
	C300.304260,103.663094 300.317627,103.658173 296.893036,103.632500 
	C296.893036,106.601379 296.893036,109.575165 296.892548,113.523132 
M406.729492,103.167145 
	C406.247803,104.584541 405.426788,105.983978 405.350616,107.422852 
	C405.153381,111.147728 405.284454,114.889999 405.284454,119.588875 
	C400.554504,113.818451 398.955078,106.821022 393.008881,102.048912 
	C391.129181,112.944122 391.992493,123.746758 395.113342,125.461380 
	C395.113342,119.855934 395.113342,114.576653 395.113342,108.744354 
	C400.220825,114.100960 400.870728,121.918221 407.598022,125.840683 
	C407.598022,117.511673 407.598022,110.412827 406.729492,103.167145 
M482.292450,125.140480 
	C486.430634,125.102737 490.568817,125.064995 494.707001,125.027252 
	C494.675781,124.342003 494.644562,123.656754 494.613342,122.971504 
	C491.297791,122.784645 487.982239,122.597786 484.527802,122.403099 
	C484.527802,119.712524 484.527802,117.611084 484.527802,115.311096 
	C487.385712,115.012825 490.110077,114.728485 492.834442,114.444153 
	C492.826569,113.907837 492.818695,113.371521 492.810822,112.835213 
	C490.040192,112.507324 487.269531,112.179436 484.309509,111.829132 
	C484.408051,109.696281 484.489166,107.940933 484.575317,106.076454 
	C488.010925,105.735153 491.105286,105.427750 494.199615,105.120354 
	C494.118011,104.568550 494.036407,104.016754 493.954803,103.464958 
	C489.857086,103.464958 485.759399,103.464958 481.574524,103.464958 
	C481.574524,110.777336 481.574524,117.709290 482.292450,125.140480 
M437.201172,125.187691 
	C441.362488,125.945732 444.898560,124.934265 446.976288,121.060112 
	C449.499939,116.354454 449.595917,111.429138 446.826904,106.804794 
	C444.842743,103.491096 441.551147,102.399033 437.770355,102.941360 
	C433.144073,103.604958 430.936737,106.742928 430.090637,110.956421 
	C428.796875,117.399437 431.048492,122.202652 437.201172,125.187691 
M339.568237,107.912704 
	C340.074585,113.655655 338.543823,119.612122 340.910217,126.513420 
	C342.492432,121.547455 343.651489,117.909653 344.958527,113.807274 
	C349.790894,117.394272 349.534851,123.669853 356.115936,125.688622 
	C352.990997,120.197853 350.551208,115.910934 348.101715,111.606934 
	C350.196259,108.912010 352.199554,106.334526 354.202820,103.757042 
	C353.784790,103.344048 353.366760,102.931053 352.948730,102.518059 
	C349.664062,105.991356 346.379395,109.464661 342.733093,113.320343 
	C342.423584,109.456970 342.167725,106.263168 341.911835,103.069359 
	C341.299255,103.079346 340.686646,103.089333 340.074036,103.099319 
	C339.905518,104.409370 339.737000,105.719421 339.568237,107.912704 
M272.148956,116.422867 
	C272.148956,119.214302 272.148956,122.005737 272.148956,125.165604 
	C276.927917,125.229164 281.254272,125.586288 285.492706,124.977219 
	C285.472504,124.312927 285.452301,123.648636 285.432129,122.984344 
	C282.106903,122.812500 278.781677,122.640663 275.468384,122.469444 
	C275.468384,119.734550 275.468384,117.480743 275.468384,115.260529 
	C278.387878,114.967957 281.015137,114.704674 283.642395,114.441391 
	C283.658875,113.907127 283.675354,113.372856 283.691833,112.838593 
	C280.931885,112.538208 278.171967,112.237816 275.394745,111.935547 
	C275.394745,109.799965 275.394745,108.030403 275.394745,106.052605 
	C278.759338,105.735008 281.930145,105.435715 285.100922,105.136414 
	C285.060760,104.625366 285.020569,104.114319 284.980408,103.603271 
	C280.894135,103.603271 276.807861,103.603271 272.149780,103.603271 
	C272.149780,107.547699 272.149780,111.498756 272.148956,116.422867 
M368.037537,112.379272 
	C366.120026,112.379272 364.202515,112.379272 362.257141,112.379272 
	C362.257141,109.800598 362.257141,107.879120 362.257141,105.919144 
	C365.648193,105.658638 368.771973,105.418663 371.895782,105.178688 
	C371.879913,104.695259 371.864044,104.211838 371.848175,103.728409 
	C367.661316,103.728409 363.474487,103.728409 359.243164,103.728409 
	C359.243164,110.836433 359.243164,117.893593 359.243164,124.566986 
	C363.728943,124.566986 367.920380,124.566986 372.111816,124.566986 
	C372.114868,124.042427 372.117920,123.517860 372.120941,122.993301 
	C368.860992,122.850487 365.601074,122.707680 362.305237,122.563301 
	C362.305237,119.896942 362.305237,117.490120 362.305237,114.872688 
	C364.612457,114.872688 366.603333,114.936172 368.574249,114.767006 
	C368.756042,114.751396 368.810669,113.253876 368.037537,112.379272 
M322.419769,121.598297 
	C322.971558,117.985199 325.819916,118.276253 328.121033,118.767380 
	C329.637421,119.091019 331.025055,120.556137 332.202209,121.770111 
	C333.252533,122.853271 333.934845,124.293266 334.779572,125.575790 
	C335.287384,125.271935 335.795197,124.968071 336.303040,124.664215 
	C334.663940,119.834328 333.154907,114.954620 331.332214,110.195045 
	C330.386841,107.726402 328.886353,105.470337 327.636658,103.118240 
	C326.215668,105.487801 324.438782,107.718765 323.450256,110.256760 
	C321.586365,115.042343 320.176514,120.004761 318.577911,124.893677 
	C319.113434,125.124680 319.648926,125.355690 320.184448,125.586700 
	C320.846008,124.504723 321.507568,123.422737 322.419769,121.598297 
M509.504120,114.007416 
	C507.842438,113.253372 505.950958,112.779587 504.587738,111.661606 
	C503.375092,110.667122 502.747772,108.958855 501.862122,107.565636 
	C503.535248,106.899078 505.168671,105.865700 506.893768,105.678871 
	C508.344482,105.521767 509.901917,106.349937 511.412109,106.741928 
	C511.526276,106.282669 511.640442,105.823418 511.754608,105.364159 
	C509.213593,102.757149 505.897461,101.839706 502.621063,103.471809 
	C500.902283,104.328011 499.189026,106.757683 498.937561,108.669411 
	C498.426086,112.557419 501.772034,113.845901 504.807526,114.985199 
	C505.273499,115.160095 505.935486,115.189545 506.176270,115.524132 
	C507.373230,117.187706 508.459595,118.930893 509.584930,120.646034 
	C507.406036,121.263725 505.247559,122.247231 503.041077,122.370422 
	C501.571564,122.452469 500.033508,121.307259 498.526154,120.711327 
	C498.227753,121.401108 497.929352,122.090889 497.630951,122.780670 
	C500.136353,123.707901 502.747284,125.574112 505.118500,125.307556 
	C507.669464,125.020813 510.829620,123.244957 512.122070,121.136772 
	C512.961975,119.766754 510.937225,116.640556 509.504120,114.007416 
M424.904633,105.393570 
	C423.325592,110.542732 421.746582,115.691902 419.806244,122.019226 
	C418.439423,117.443901 417.470306,114.162621 416.478760,110.888145 
	C414.342316,103.833221 414.337585,103.834656 411.228027,103.620598 
	C413.312164,110.190865 415.302948,116.654961 417.464844,123.061325 
	C417.759277,123.933708 418.810120,124.855537 419.697784,125.115356 
	C420.285034,125.287231 421.688751,124.478470 421.903870,123.834000 
	C424.136749,117.144485 426.202393,110.399124 428.314484,103.669281 
	C427.991302,103.433075 427.668152,103.196869 427.345001,102.960663 
	C426.585205,103.516266 425.825409,104.071861 424.904633,105.393570 
M465.905060,104.019211 
	C461.141998,108.157974 459.760132,112.943291 461.619080,118.668144 
	C462.934418,122.718712 465.667633,125.366188 469.898987,125.313278 
	C472.355347,125.282570 474.793945,123.832275 477.240509,123.020775 
	C477.057648,122.534454 476.874756,122.048126 476.691864,121.561806 
	C474.106964,121.979385 470.984863,123.478699 469.077698,122.531578 
	C466.860352,121.430405 464.877289,118.364037 464.330139,115.819885 
	C463.800293,113.356262 464.343842,109.186516 465.986206,108.064323 
	C468.692902,106.214951 472.664703,106.217171 475.901733,105.484505 
	C473.572144,102.391335 472.453888,102.127754 465.905060,104.019211 
M453.274750,114.479828 
	C453.274811,124.369102 453.274811,124.369102 455.643921,124.737068 
	C455.643921,117.551399 455.643921,110.331306 455.643921,103.111214 
	C454.983856,103.075790 454.323792,103.040359 453.663727,103.004936 
	C453.534088,106.507355 453.404480,110.009781 453.274750,114.479828 
M386.258667,107.718521 
	C386.003845,106.179604 385.748993,104.640678 385.494171,103.101761 
	C385.112701,103.176888 384.731201,103.252022 384.349731,103.327148 
	C384.349731,110.562935 384.349731,117.798721 384.349731,125.034508 
	C384.986084,125.054520 385.622406,125.074539 386.258759,125.094559 
	C386.258759,119.622704 386.258759,114.150856 386.258667,107.718521 
z"/>
<path fill="#FFFFFF" opacity="1.000000" stroke="none" 
	d="
M150.000000,1.000000 
	C150.750000,1.000000 151.500000,1.000000 152.622498,1.429317 
	C153.138931,3.840819 153.282837,5.823004 153.426743,7.805189 
	C153.864120,8.037066 154.301483,8.268942 154.738861,8.500818 
	C157.492569,6.000546 160.246292,3.500273 163.000000,1.000000 
	C268.021423,1.000000 373.042877,1.000000 478.525391,1.402559 
	C478.652527,4.471760 478.318542,7.138402 477.521454,9.874634 
	C369.372681,9.951109 261.687042,9.958397 154.001373,9.958735 
	C153.005920,9.958738 152.010468,9.865967 151.009491,9.409595 
	C150.669312,6.335121 150.334656,3.667560 150.000000,1.000000 
z"/>
<path fill="#FFFFFF" opacity="1.000000" stroke="none" 
	d="
M485.000000,1.000002 
	C490.022095,1.000000 495.044189,1.000000 500.565613,1.350917 
	C502.371399,4.400830 503.677826,7.099825 504.521423,9.869480 
	C497.044098,9.897267 490.029694,9.854397 483.009644,9.410484 
	C483.669342,6.339630 484.334686,3.669817 485.000000,1.000002 
z"/>
<path fill="#F1F1F1" opacity="1.000000" stroke="none" 
	d="
M149.539368,1.000000 
	C150.334656,3.667560 150.669312,6.335121 150.551788,9.476601 
	C146.394943,9.902632 142.690292,9.854745 138.985626,9.806857 
	C138.657303,7.146536 138.328979,4.486215 138.000336,1.412946 
	C141.692902,1.000000 145.385818,1.000000 149.539368,1.000000 
z"/>
<path fill="#FEFEFE" opacity="1.000000" stroke="none" 
	d="
M507.000000,0.999999 
	C509.042328,1.000000 511.084625,1.000000 513.606506,1.373546 
	C514.719299,4.434023 515.352539,7.120954 515.563354,9.877392 
	C513.432068,9.901738 511.723175,9.856578 510.001526,9.442308 
	C508.992523,6.382132 507.996277,3.691064 507.000000,0.999999 
z"/>
<path fill="#F1F1F1" opacity="1.000000" stroke="none" 
	d="
M506.571533,0.999999 
	C507.996277,3.691064 508.992523,6.382132 509.585693,9.508873 
	C507.783203,9.895972 506.383728,9.847398 504.984283,9.798822 
	C503.677826,7.099825 502.371399,4.400830 501.032471,1.350917 
	C502.714355,1.000000 504.428711,1.000000 506.571533,0.999999 
z"/>
<path fill="#F1F1F1" opacity="1.000000" stroke="none" 
	d="
M484.571533,1.000002 
	C484.334686,3.669817 483.669342,6.339630 482.593903,9.477663 
	C480.784058,9.898936 479.384308,9.851991 477.984558,9.805044 
	C478.318542,7.138402 478.652527,4.471760 478.993256,1.402559 
	C480.714355,1.000000 482.428711,1.000000 484.571533,1.000002 
z"/>
<path fill="#F1F1F1" opacity="1.000000" stroke="none" 
	d="
M515.985779,9.807886 
	C515.352539,7.120954 514.719299,4.434023 514.043030,1.373546 
	C515.714355,1.000000 517.428711,1.000000 519.571533,0.999998 
	C520.334595,3.667381 520.669128,6.334765 520.593933,9.473030 
	C518.784729,9.898569 517.385254,9.853228 515.985779,9.807886 
z"/>
<path fill="#F1F1F1" opacity="1.000000" stroke="none" 
	d="
M162.545898,1.000000 
	C160.246292,3.500273 157.492569,6.000546 154.738861,8.500818 
	C154.301483,8.268942 153.864120,8.037066 153.426743,7.805189 
	C153.282837,5.823004 153.138931,3.840819 152.997498,1.429317 
	C156.030594,1.000000 159.061188,1.000000 162.545898,1.000000 
z"/>
<path fill="#414141" opacity="1.000000" stroke="none" 
	d="
M515.563354,9.877392 
	C517.385254,9.853228 518.784729,9.898569 520.599365,9.874167 
	C530.489014,9.804424 539.963440,9.804424 549.751709,9.804424 
	C549.751709,36.254616 549.751709,62.297287 549.751709,88.591370 
	C376.678101,88.591370 203.754333,88.591370 30.414349,88.591370 
	C30.414349,62.651344 30.414349,36.613300 30.414349,9.946941 
	C66.205109,9.946941 102.132263,9.946941 138.522522,9.876900 
	C142.690292,9.854745 146.394943,9.902632 150.557312,9.883514 
	C152.010468,9.865967 153.005920,9.958738 154.001373,9.958735 
	C261.687042,9.958397 369.372681,9.951109 477.521454,9.874634 
	C479.384308,9.851991 480.784058,9.898936 482.599548,9.878704 
	C490.029694,9.854397 497.044098,9.897267 504.521423,9.869480 
	C506.383728,9.847398 507.783203,9.895972 509.598450,9.877983 
	C511.723175,9.856578 513.432068,9.901738 515.563354,9.877392 
M486.155365,15.733287 
	C484.436554,15.826488 482.717743,15.919689 480.119812,15.795433 
	C477.411469,15.854091 474.703156,15.912749 471.185913,15.730559 
	C469.791931,15.812880 468.397980,15.895200 466.212799,15.809643 
	C465.140472,15.865142 464.068176,15.920641 462.135590,15.734502 
	C459.763092,15.793900 457.390594,15.853298 454.091370,15.742200 
	C314.749542,15.742200 175.407684,15.742200 36.055351,15.742200 
	C36.055351,38.502892 36.055351,60.573982 36.055351,83.031807 
	C38.116707,83.031807 39.914532,83.031807 41.712360,83.031807 
	C163.647995,83.031418 285.583618,83.032768 407.519257,83.023232 
	C411.679688,83.022903 415.840118,82.913177 420.926910,83.007027 
	C461.996796,83.007027 503.066650,83.007027 544.084229,83.007027 
	C544.084229,60.329357 544.084229,38.253117 544.084229,16.006289 
	C531.871582,16.006289 519.936035,16.006289 507.190674,15.773603 
	C505.795593,15.833035 504.400543,15.892466 502.088135,15.756394 
	C497.056671,15.819574 492.025208,15.882754 486.155365,15.733287 
z"/>
<path fill="#424242" opacity="1.000000" stroke="none" 
	d="
M703.157471,45.416451 
	C701.359680,53.092976 699.696411,60.387653 697.858337,67.638000 
	C697.536926,68.905945 696.480469,69.987564 695.763489,71.155228 
	C694.941589,69.930260 693.705017,68.810066 693.364746,67.463387 
	C691.101807,58.507725 689.030518,49.503620 686.896912,40.515255 
	C686.325562,40.553101 685.754150,40.590946 685.182800,40.628792 
	C685.182800,49.674126 685.242737,58.720356 685.107422,67.763664 
	C685.090393,68.904152 684.046692,70.029282 683.478760,71.161530 
	C682.937561,70.026550 681.935059,68.895409 681.925598,67.756042 
	C681.815552,54.468700 681.855103,41.180107 681.855103,28.457853 
	C687.011353,26.235397 687.363708,28.992634 687.924072,31.462933 
	C690.350098,42.158775 692.771973,52.855549 695.923767,63.653061 
	C698.258240,53.741508 700.459167,43.795174 703.025574,33.944035 
	C703.630981,31.619991 702.334351,27.330269 706.657227,27.778442 
	C707.621338,27.878407 708.672424,32.233612 708.775452,34.668118 
	C709.233582,45.487370 709.373169,56.320358 709.598694,67.148987 
	C709.641296,69.192924 710.421204,71.949493 706.379456,70.852036 
	C705.882874,61.148880 705.384216,51.406349 704.832825,40.631866 
	C704.076660,42.705372 703.654663,43.862465 703.157471,45.416451 
z"/>
<path fill="#424242" opacity="1.000000" stroke="none" 
	d="
M561.469849,38.373840 
	C561.357361,30.918308 564.063416,27.533194 570.124207,27.048700 
	C576.515564,26.537779 580.264221,29.180067 581.137329,35.142487 
	C581.319458,36.386909 580.452820,37.784916 580.069458,39.112148 
	C579.547119,39.029022 579.024719,38.945900 578.502380,38.862774 
	C578.133118,37.512520 578.139160,35.837410 577.312805,34.882816 
	C575.808594,33.145054 573.970703,30.976503 571.970276,30.602682 
	C570.187683,30.269575 567.039246,31.613886 566.235107,33.137218 
	C565.282959,34.941044 565.365967,38.277313 566.482666,39.973343 
	C568.539307,43.096752 572.012512,45.256329 574.283630,48.277397 
	C577.195435,52.150711 580.623108,56.183884 581.804016,60.679935 
	C583.493347,67.111542 579.402527,71.437080 573.089966,71.795700 
	C566.811035,72.152420 561.738770,67.948067 561.636414,61.972324 
	C561.617065,60.843594 562.986389,59.691071 564.251526,57.708775 
	C565.182373,60.866631 565.565247,62.822208 566.328613,64.615875 
	C567.830383,68.144684 571.086487,69.288094 574.131775,67.926094 
	C575.987427,67.096153 578.154663,63.930885 577.910278,62.121483 
	C577.505554,59.125778 575.622742,56.111683 573.727295,53.581326 
	C569.898499,48.470150 565.643433,43.678329 561.469849,38.373840 
z"/>
<path fill="#454545" opacity="1.000000" stroke="none" 
	d="
M630.576599,68.544189 
	C626.232422,72.681549 621.258240,72.930634 617.040527,70.142151 
	C614.548950,68.494888 613.394409,64.665657 612.010986,61.646992 
	C611.758240,61.095482 613.300232,59.721493 614.664978,57.819706 
	C615.423950,60.641651 615.753967,62.216743 616.271912,63.727386 
	C617.657471,67.768639 620.709717,69.021545 624.583740,68.058670 
	C628.519897,67.080368 629.200989,63.835312 628.312561,60.574036 
	C627.692993,58.299438 626.270935,56.059948 624.682251,54.271015 
	C621.372314,50.543781 617.503052,47.307026 614.258728,43.529396 
	C611.036316,39.777325 610.685974,35.297531 613.136780,30.970366 
	C615.086609,27.527719 620.595581,26.094042 625.257019,27.385868 
	C629.853027,28.659550 631.285889,32.339714 631.785278,36.447727 
	C631.881836,37.242546 630.283264,38.243401 628.909119,39.767681 
	C628.401184,37.588768 628.477539,36.208450 627.826782,35.461906 
	C626.215820,33.613903 624.500427,31.224268 622.389893,30.645309 
	C620.711487,30.184872 617.253662,31.589039 616.622253,33.047184 
	C615.736206,35.093628 615.844727,38.616894 617.114563,40.337532 
	C619.944641,44.172386 623.827881,47.214973 627.155945,50.700691 
	C632.907227,56.724243 633.858765,61.536411 630.576599,68.544189 
z"/>
<path fill="#535353" opacity="1.000000" stroke="none" 
	d="
M668.001892,27.329369 
	C670.293396,27.330368 672.149841,27.150837 673.942871,27.410099 
	C674.809204,27.535353 675.556274,28.485477 676.357300,29.062111 
	C675.501587,29.597481 674.674622,30.530209 673.784912,30.594469 
	C671.003723,30.795334 668.198914,30.668215 665.136414,30.668215 
	C665.136414,36.163933 665.136414,41.247440 665.136414,46.926929 
	C667.408264,46.926929 669.691895,46.776169 671.936157,47.007420 
	C672.738708,47.090115 673.446045,48.096508 674.196899,48.681282 
	C673.491150,49.144798 672.813782,49.945663 672.074219,50.008022 
	C669.934265,50.188454 667.769226,50.071865 665.237305,50.071865 
	C665.237305,55.933975 665.237305,61.652618 665.237305,68.063156 
	C668.014465,68.063156 670.947205,67.947807 673.861145,68.130859 
	C674.779480,68.188545 675.647522,69.045967 676.538574,69.537338 
	C675.747925,70.118156 674.974854,71.171265 674.163818,71.201302 
	C669.717834,71.365990 665.262573,71.279854 660.581299,71.279854 
	C660.581299,56.525684 660.581299,42.290192 660.581299,27.329281 
	C663.020325,27.329281 665.280518,27.329281 668.001892,27.329369 
z"/>
<path fill="#424242" opacity="1.000000" stroke="none" 
	d="
M592.087891,49.053410 
	C589.670532,41.784435 587.357056,34.900166 585.043579,28.015892 
	C585.473633,27.657768 585.903625,27.299644 586.333679,26.941521 
	C587.538208,28.134920 589.320862,29.117025 589.847534,30.558151 
	C592.181946,36.946083 594.155762,43.465797 596.779480,51.535442 
	C598.535645,45.903118 599.554810,41.492714 601.298706,37.390358 
	C602.787415,33.888279 601.839233,28.504925 608.605896,26.857685 
	C606.149963,34.432083 604.370728,40.953579 601.915588,47.209831 
	C599.296753,53.883183 598.432129,60.676052 598.936584,67.717506 
	C599.138123,70.530396 598.220825,71.756729 596.036133,71.142960 
	C594.704956,63.627007 593.448425,56.532558 592.087891,49.053410 
z"/>
<path fill="#555555" opacity="1.000000" stroke="none" 
	d="
M643.374268,37.041626 
	C643.335693,35.053909 643.318420,33.558815 643.240967,32.066833 
	C643.225769,31.773314 642.978699,31.491821 642.688843,30.898041 
	C641.224792,30.830730 639.559753,30.962381 638.004700,30.609364 
	C636.971008,30.374706 636.094604,29.447531 635.147766,28.830349 
	C636.040771,28.327150 636.922668,27.413176 637.828552,27.388659 
	C642.977966,27.249306 648.135315,27.247570 653.284241,27.396235 
	C654.152588,27.421305 654.993164,28.407104 655.846558,28.949028 
	C655.026672,29.524475 654.265686,30.448334 653.374023,30.599068 
	C651.774048,30.869539 650.095581,30.675348 648.001465,30.675348 
	C648.001465,44.207630 648.001465,57.433403 648.001465,70.964020 
	C646.325806,70.964020 645.097534,70.964020 643.374390,70.964020 
	C643.374390,59.720501 643.374390,48.627918 643.374268,37.041626 
z"/>
<path fill="#454545" opacity="1.000000" stroke="none" 
	d="
M247.893967,123.187729 
	C246.465210,116.351784 245.101257,109.925629 243.737305,103.499474 
	C244.257477,103.349884 244.777664,103.200294 245.297836,103.050705 
	C249.351669,107.734375 247.567017,114.570663 250.398605,120.070618 
	C252.045761,114.103615 253.591446,108.504189 255.137146,102.904762 
	C255.802322,102.863548 256.467499,102.822334 257.132690,102.781128 
	C258.729065,108.407127 260.325470,114.033134 262.192749,120.613754 
	C263.667206,114.013817 264.901917,108.487099 266.136627,102.960381 
	C266.847260,103.101402 267.557892,103.242416 268.268555,103.383438 
	C267.736908,106.450951 267.257782,109.528740 266.659668,112.583237 
	C265.989197,116.007454 265.306641,119.435852 264.416046,122.806053 
	C264.177917,123.707222 263.161102,124.402618 262.501770,125.192474 
	C261.649292,124.418594 260.319336,123.792313 260.026611,122.845406 
	C258.726196,118.638412 257.722992,114.339554 255.588638,110.036278 
	C254.503326,114.226822 253.496918,118.439919 252.307297,122.600639 
	C251.386002,125.822945 250.934570,125.872910 247.893967,123.187729 
z"/>
<path fill="#3E3E3E" opacity="1.000000" stroke="none" 
	d="
M296.892792,113.036041 
	C296.893036,109.575165 296.893036,106.601379 296.893036,103.632500 
	C300.317627,103.658173 300.304260,103.663094 302.435059,109.453316 
	C303.499054,112.344696 304.622253,115.214279 305.844696,118.424576 
	C309.597107,113.446945 308.786377,106.533272 314.721680,101.869858 
	C314.721680,110.556686 314.721680,117.783302 314.721680,125.009926 
	C314.234009,125.049767 313.746307,125.089615 313.258636,125.129456 
	C313.258636,120.506035 313.258636,115.882614 313.258636,111.259193 
	C312.672089,111.141693 312.085541,111.024185 311.498993,110.906685 
	C309.884735,114.960762 308.270447,119.014847 306.100250,124.465096 
	C303.915771,119.179497 302.235199,115.113167 300.554626,111.046837 
	C300.118683,111.079742 299.682770,111.112656 299.246826,111.145561 
	C299.246826,115.815018 299.246826,120.484467 299.246826,125.153923 
	C298.462067,125.171066 297.677307,125.188217 296.892548,125.205360 
	C296.892548,121.311287 296.892548,117.417206 296.892792,113.036041 
z"/>
<path fill="#4B4B4B" opacity="1.000000" stroke="none" 
	d="
M407.163757,103.240570 
	C407.598022,110.412827 407.598022,117.511673 407.598022,125.840683 
	C400.870728,121.918221 400.220825,114.100960 395.113342,108.744354 
	C395.113342,114.576653 395.113342,119.855934 395.113342,125.461380 
	C391.992493,123.746758 391.129181,112.944122 393.008881,102.048912 
	C398.955078,106.821022 400.554504,113.818451 405.284454,119.588875 
	C405.284454,114.889999 405.153381,111.147728 405.350616,107.422852 
	C405.426788,105.983978 406.247803,104.584541 407.163757,103.240570 
z"/>
<path fill="#555555" opacity="1.000000" stroke="none" 
	d="
M481.933472,124.890854 
	C481.574524,117.709290 481.574524,110.777336 481.574524,103.464958 
	C485.759399,103.464958 489.857086,103.464958 493.954803,103.464958 
	C494.036407,104.016754 494.118011,104.568550 494.199615,105.120354 
	C491.105286,105.427750 488.010925,105.735153 484.575317,106.076454 
	C484.489166,107.940933 484.408051,109.696281 484.309509,111.829132 
	C487.269531,112.179436 490.040192,112.507324 492.810822,112.835213 
	C492.818695,113.371521 492.826569,113.907837 492.834442,114.444153 
	C490.110077,114.728485 487.385712,115.012825 484.527802,115.311096 
	C484.527802,117.611084 484.527802,119.712524 484.527802,122.403099 
	C487.982239,122.597786 491.297791,122.784645 494.613342,122.971504 
	C494.644562,123.656754 494.675781,124.342003 494.707001,125.027252 
	C490.568817,125.064995 486.430634,125.102737 481.933472,124.890854 
z"/>
<path fill="#454545" opacity="1.000000" stroke="none" 
	d="
M436.830811,125.122787 
	C431.048492,122.202652 428.796875,117.399437 430.090637,110.956421 
	C430.936737,106.742928 433.144073,103.604958 437.770355,102.941360 
	C441.551147,102.399033 444.842743,103.491096 446.826904,106.804794 
	C449.595917,111.429138 449.499939,116.354454 446.976288,121.060112 
	C444.898560,124.934265 441.362488,125.945732 436.830811,125.122787 
M440.882355,105.660202 
	C436.560547,104.665596 434.235992,106.874344 433.178711,110.709946 
	C431.888641,115.390320 433.401001,121.277122 436.672150,122.170525 
	C438.755432,122.739494 442.150146,122.122215 443.605621,120.676506 
	C447.515076,116.793175 446.218567,109.465088 440.882355,105.660202 
z"/>
<path fill="#414141" opacity="1.000000" stroke="none" 
	d="
M339.568359,107.471085 
	C339.737000,105.719421 339.905518,104.409370 340.074036,103.099319 
	C340.686646,103.089333 341.299255,103.079346 341.911835,103.069359 
	C342.167725,106.263168 342.423584,109.456970 342.733093,113.320343 
	C346.379395,109.464661 349.664062,105.991356 352.948730,102.518059 
	C353.366760,102.931053 353.784790,103.344048 354.202820,103.757042 
	C352.199554,106.334526 350.196259,108.912010 348.101715,111.606934 
	C350.551208,115.910934 352.990997,120.197853 356.115936,125.688622 
	C349.534851,123.669853 349.790894,117.394272 344.958527,113.807274 
	C343.651489,117.909653 342.492432,121.547455 340.910217,126.513420 
	C338.543823,119.612122 340.074585,113.655655 339.568359,107.471085 
z"/>
<path fill="#535353" opacity="1.000000" stroke="none" 
	d="
M272.149353,115.936340 
	C272.149780,111.498756 272.149780,107.547699 272.149780,103.603271 
	C276.807861,103.603271 280.894135,103.603271 284.980408,103.603271 
	C285.020569,104.114319 285.060760,104.625366 285.100922,105.136414 
	C281.930145,105.435715 278.759338,105.735008 275.394745,106.052605 
	C275.394745,108.030403 275.394745,109.799965 275.394745,111.935547 
	C278.171967,112.237816 280.931885,112.538208 283.691833,112.838593 
	C283.675354,113.372856 283.658875,113.907127 283.642395,114.441391 
	C281.015137,114.704674 278.387878,114.967957 275.468384,115.260529 
	C275.468384,117.480743 275.468384,119.734550 275.468384,122.469444 
	C278.781677,122.640663 282.106903,122.812500 285.432129,122.984344 
	C285.452301,123.648636 285.472504,124.312927 285.492706,124.977219 
	C281.254272,125.586288 276.927917,125.229164 272.148956,125.165604 
	C272.148956,122.005737 272.148956,119.214302 272.149353,115.936340 
z"/>
<path fill="#4B4B4B" opacity="1.000000" stroke="none" 
	d="
M368.480957,112.411873 
	C368.810669,113.253876 368.756042,114.751396 368.574249,114.767006 
	C366.603333,114.936172 364.612457,114.872688 362.305237,114.872688 
	C362.305237,117.490120 362.305237,119.896942 362.305237,122.563301 
	C365.601074,122.707680 368.860992,122.850487 372.120941,122.993301 
	C372.117920,123.517860 372.114868,124.042427 372.111816,124.566986 
	C367.920380,124.566986 363.728943,124.566986 359.243164,124.566986 
	C359.243164,117.893593 359.243164,110.836433 359.243164,103.728409 
	C363.474487,103.728409 367.661316,103.728409 371.848175,103.728409 
	C371.864044,104.211838 371.879913,104.695259 371.895782,105.178688 
	C368.771973,105.418663 365.648193,105.658638 362.257141,105.919144 
	C362.257141,107.879120 362.257141,109.800598 362.257141,112.379272 
	C364.202515,112.379272 366.120026,112.379272 368.480957,112.411873 
z"/>
<path fill="#4B4B4B" opacity="1.000000" stroke="none" 
	d="
M322.294434,121.969528 
	C321.507568,123.422737 320.846008,124.504723 320.184448,125.586700 
	C319.648926,125.355690 319.113434,125.124680 318.577911,124.893677 
	C320.176514,120.004761 321.586365,115.042343 323.450256,110.256760 
	C324.438782,107.718765 326.215668,105.487801 327.636658,103.118240 
	C328.886353,105.470337 330.386841,107.726402 331.332214,110.195045 
	C333.154907,114.954620 334.663940,119.834328 336.303040,124.664215 
	C335.795197,124.968071 335.287384,125.271935 334.779572,125.575790 
	C333.934845,124.293266 333.252533,122.853271 332.202209,121.770111 
	C331.025055,120.556137 329.637421,119.091019 328.121033,118.767380 
	C325.819916,118.276253 322.971558,117.985199 322.294434,121.969528 
M329.162506,111.586884 
	C328.638062,109.950073 328.113617,108.313255 327.296631,105.763466 
	C326.184601,109.669632 325.326447,112.683884 324.408752,115.907425 
	C326.730530,115.907425 328.333099,115.907425 330.205322,115.907425 
	C329.921875,114.545067 329.693542,113.447693 329.162506,111.586884 
z"/>
<path fill="#454545" opacity="1.000000" stroke="none" 
	d="
M509.850037,114.154297 
	C510.937225,116.640556 512.961975,119.766754 512.122070,121.136772 
	C510.829620,123.244957 507.669464,125.020813 505.118500,125.307556 
	C502.747284,125.574112 500.136353,123.707901 497.630951,122.780670 
	C497.929352,122.090889 498.227753,121.401108 498.526154,120.711327 
	C500.033508,121.307259 501.571564,122.452469 503.041077,122.370422 
	C505.247559,122.247231 507.406036,121.263725 509.584930,120.646042 
	C508.459595,118.930893 507.373230,117.187706 506.176270,115.524132 
	C505.935486,115.189545 505.273499,115.160095 504.807526,114.985199 
	C501.772034,113.845901 498.426086,112.557419 498.937561,108.669411 
	C499.189026,106.757683 500.902283,104.328011 502.621063,103.471809 
	C505.897461,101.839706 509.213593,102.757149 511.754608,105.364159 
	C511.640442,105.823418 511.526276,106.282669 511.412109,106.741928 
	C509.901917,106.349937 508.344482,105.521767 506.893768,105.678871 
	C505.168671,105.865700 503.535248,106.899078 501.862122,107.565643 
	C502.747772,108.958855 503.375092,110.667122 504.587738,111.661606 
	C505.950958,112.779587 507.842438,113.253372 509.850037,114.154297 
z"/>
<path fill="#4B4B4B" opacity="1.000000" stroke="none" 
	d="
M424.985107,105.010513 
	C425.825409,104.071861 426.585205,103.516266 427.345001,102.960663 
	C427.668152,103.196869 427.991302,103.433075 428.314484,103.669281 
	C426.202393,110.399124 424.136749,117.144485 421.903870,123.834000 
	C421.688751,124.478470 420.285034,125.287231 419.697784,125.115356 
	C418.810120,124.855537 417.759277,123.933708 417.464844,123.061325 
	C415.302948,116.654961 413.312164,110.190865 411.228027,103.620598 
	C414.337585,103.834656 414.342316,103.833221 416.478760,110.888145 
	C417.470306,114.162621 418.439423,117.443901 419.806244,122.019226 
	C421.746582,115.691902 423.325592,110.542732 424.985107,105.010513 
z"/>
<path fill="#4B4B4B" opacity="1.000000" stroke="none" 
	d="
M466.269043,103.850555 
	C472.453888,102.127754 473.572144,102.391335 475.901733,105.484505 
	C472.664703,106.217171 468.692902,106.214951 465.986206,108.064323 
	C464.343842,109.186516 463.800293,113.356262 464.330139,115.819885 
	C464.877289,118.364037 466.860352,121.430405 469.077698,122.531578 
	C470.984863,123.478699 474.106964,121.979385 476.691864,121.561806 
	C476.874756,122.048126 477.057648,122.534454 477.240509,123.020775 
	C474.793945,123.832275 472.355347,125.282570 469.898987,125.313278 
	C465.667633,125.366188 462.934418,122.718712 461.619080,118.668144 
	C459.760132,112.943291 461.141998,108.157974 466.269043,103.850555 
z"/>
<path fill="#535353" opacity="1.000000" stroke="none" 
	d="
M453.274780,113.996017 
	C453.404480,110.009781 453.534088,106.507355 453.663727,103.004936 
	C454.323792,103.040359 454.983856,103.075790 455.643921,103.111214 
	C455.643921,110.331306 455.643921,117.551399 455.643921,124.737068 
	C453.274811,124.369102 453.274811,124.369102 453.274780,113.996017 
z"/>
<path fill="#353535" opacity="1.000000" stroke="none" 
	d="
M386.258728,108.198761 
	C386.258759,114.150856 386.258759,119.622704 386.258759,125.094559 
	C385.622406,125.074539 384.986084,125.054520 384.349731,125.034508 
	C384.349731,117.798721 384.349731,110.562935 384.349731,103.327148 
	C384.731201,103.252022 385.112701,103.176888 385.494171,103.101761 
	C385.748993,104.640678 386.003845,106.179604 386.258728,108.198761 
z"/>
<path fill="#FCFCFC" opacity="1.000000" stroke="none" 
	d="
M420.000549,82.854431 
	C415.840118,82.913177 411.679688,83.022903 407.519257,83.023232 
	C285.583618,83.032768 163.647995,83.031418 41.712360,83.031807 
	C39.914532,83.031807 38.116707,83.031807 36.055351,83.031807 
	C36.055351,60.573982 36.055351,38.502892 36.055351,15.742200 
	C175.407684,15.742200 314.749542,15.742200 454.527039,16.190254 
	C453.638397,20.243330 452.314056,23.848351 450.538940,27.467403 
	C445.440796,27.033533 441.010437,26.990402 439.401489,32.990097 
	C437.038666,32.991661 435.092651,32.990448 433.023376,32.615852 
	C432.467896,30.686882 432.035675,29.131292 431.697174,27.913013 
	C428.081970,27.913013 424.863068,27.913013 421.260193,27.913013 
	C421.260193,42.576916 421.260193,56.795723 421.260193,72.356659 
	C423.996277,71.009880 426.038147,70.004807 428.450348,69.005829 
	C432.636627,70.741615 432.820587,72.060478 429.743225,74.585464 
	C426.450684,77.286957 423.244446,80.093651 420.000549,82.854431 
M269.860413,64.412659 
	C269.860413,52.274658 269.860413,40.136658 269.860413,27.734287 
	C265.625671,27.734287 262.518219,27.734287 259.168091,27.734287 
	C257.585754,35.006302 256.001099,42.288826 254.416473,49.571354 
	C254.050980,49.523571 253.685486,49.475788 253.319992,49.428005 
	C251.882812,42.163685 250.445633,34.899361 249.017502,27.680801 
	C245.464050,27.680801 242.337753,27.680801 238.594360,27.680801 
	C238.594360,42.275379 238.594360,56.653938 238.594360,70.959068 
	C240.608307,70.959068 242.559937,70.959068 245.173462,70.959068 
	C245.173462,63.271523 245.173462,55.783890 245.173462,48.296253 
	C245.633636,48.252068 246.093796,48.207882 246.553970,48.163696 
	C248.054672,55.784920 249.555374,63.406147 251.039993,70.945648 
	C253.296356,70.945648 255.076370,70.945648 257.060577,70.945648 
	C258.454224,63.330425 259.814575,55.897163 261.174957,48.463898 
	C261.331177,48.499660 261.487427,48.535423 261.643646,48.571186 
	C262.053986,56.051483 262.464294,63.531780 262.872070,70.965622 
	C265.566101,70.965622 267.509308,70.965622 269.868988,70.965622 
	C269.868988,68.975731 269.868988,67.180489 269.860413,64.412659 
M147.225433,51.480751 
	C147.174103,47.327137 147.269821,43.165398 147.040665,39.021614 
	C146.573349,30.571247 142.472305,26.850313 133.940598,26.879856 
	C125.544289,26.908930 121.363976,30.752535 121.047569,39.245152 
	C120.800262,45.882984 120.829422,52.541649 121.022522,59.182716 
	C121.267822,67.618614 125.575661,71.828049 133.681717,71.974571 
	C142.149261,72.127625 146.607071,67.982140 147.079880,59.444496 
	C147.208420,57.123550 147.180923,54.793961 147.225433,51.480751 
M374.489685,50.491520 
	C374.503754,46.494781 374.202820,42.459991 374.678925,38.519066 
	C374.884216,36.819813 376.697540,35.314819 377.780365,33.721584 
	C378.857574,35.260334 380.152313,36.697647 380.934052,38.374176 
	C381.438934,39.456879 381.192108,40.890079 381.308685,42.542042 
	C383.052643,42.542042 384.526398,42.577553 385.997681,42.531963 
	C387.439728,42.487274 388.879211,42.360054 390.264069,42.272583 
	C390.902100,32.161106 387.417297,27.461824 379.247345,26.953680 
	C369.934326,26.374441 365.282257,30.361969 364.795349,39.914631 
	C364.473846,46.222481 364.777100,52.560749 364.746185,58.885139 
	C364.687378,70.917679 375.138947,75.381477 382.116699,70.407127 
	C385.811554,70.793907 388.027252,71.025848 390.316162,71.265450 
	C390.316162,63.262985 390.316162,56.043846 390.316162,48.784271 
	C386.027924,48.784271 382.130280,48.784271 378.198975,48.784271 
	C378.198975,50.723255 378.198975,52.333954 378.198975,53.897396 
	C379.530396,54.158482 380.622559,54.372658 381.731995,54.590214 
	C381.731995,56.998051 382.167847,59.272011 381.586121,61.246109 
	C381.164734,62.676067 379.394012,63.708393 378.224976,64.918022 
	C377.032959,63.601589 375.087006,62.427269 374.806519,60.939030 
	C374.229218,57.876114 374.542145,54.645401 374.489685,50.491520 
M321.365723,34.657902 
	C321.365723,38.303009 321.365723,41.948116 321.365723,45.593224 
	C318.318970,41.141895 315.952087,36.754959 314.492340,32.084492 
	C313.043854,27.449991 310.346375,26.696920 306.054688,27.901646 
	C306.054688,42.253242 306.054688,56.584923 306.054688,70.886246 
	C308.815918,70.886246 311.225037,70.886246 313.974884,70.886246 
	C313.974884,64.057777 313.974884,57.505550 313.974884,50.953320 
	C316.816254,55.927921 319.222198,60.969868 320.830475,66.254555 
	C322.263885,70.964783 324.716370,72.309761 329.122314,70.630188 
	C329.122314,56.285240 329.122314,42.056713 329.122314,27.879066 
	C326.410126,27.879066 324.023987,27.879066 321.365875,27.879066 
	C321.365875,30.101702 321.365875,31.914490 321.365723,34.657902 
M71.340210,60.560562 
	C71.340210,57.389675 71.340210,54.218788 71.340210,51.047901 
	C74.333435,56.001919 76.630409,60.962643 78.219398,66.140640 
	C79.620392,70.706001 82.108910,72.216423 86.620506,70.774773 
	C86.620506,56.450474 86.620506,42.099445 86.620506,27.707397 
	C83.982651,27.707397 81.709007,27.707397 78.871536,27.707397 
	C78.871536,34.039223 78.871536,40.162674 78.871536,46.286129 
	C76.047531,41.669849 73.667603,37.098633 72.107048,32.262985 
	C70.570351,27.501284 67.835976,26.493040 63.290421,28.036928 
	C63.290421,42.236797 63.290421,56.457584 63.290421,70.821289 
	C66.040047,70.821289 68.573387,70.821289 71.340286,70.821289 
	C71.340286,67.496178 71.340286,64.514931 71.340210,60.560562 
M178.806198,51.474129 
	C178.847260,46.650234 178.695099,41.811298 179.068665,37.013283 
	C179.159195,35.850601 180.983734,34.822926 182.010925,33.733177 
	C183.017120,34.817417 184.512695,35.748352 184.911896,37.022743 
	C185.475159,38.820789 185.227081,40.872993 185.344208,43.176968 
	C187.137589,43.176968 188.609024,43.210739 190.078217,43.167404 
	C191.527161,43.124664 192.973816,43.003876 194.361588,42.920910 
	C195.459854,32.705872 191.962479,27.540583 183.815445,26.956461 
	C173.870178,26.243406 169.325302,30.279119 169.026993,40.427395 
	C168.841339,46.743561 168.834351,53.077042 169.074112,59.390331 
	C169.323517,65.956879 171.768860,69.364319 176.722885,70.953125 
	C188.624222,74.770027 196.319611,67.924934 194.226059,55.246246 
	C191.328613,55.246246 188.416290,55.246246 185.082275,55.246246 
	C185.082275,57.286388 185.434769,59.174255 184.977127,60.839478 
	C184.568878,62.324932 183.265182,63.564301 182.356628,64.912262 
	C181.192627,63.589523 179.326721,62.411438 179.017792,60.912468 
	C178.457870,58.195667 178.825653,55.287670 178.806198,51.474129 
M350.218506,62.071247 
	C351.096924,64.984650 351.975372,67.898056 352.854645,70.814194 
	C355.583710,70.814194 358.298523,70.814194 361.325134,70.814194 
	C359.176086,59.301472 357.027527,48.209423 355.052002,37.086639 
	C353.202179,26.671347 353.282837,26.657019 342.147858,27.843050 
	C339.447113,42.028748 336.724457,56.329674 333.944366,70.932106 
	C337.061340,70.932106 339.829041,70.932106 342.928558,70.932106 
	C343.522003,68.052773 344.112732,65.186600 344.766357,62.015339 
	C346.388733,62.015339 347.863800,62.015339 350.218506,62.071247 
M296.675049,71.176949 
	C298.134857,71.105911 299.594635,71.034882 301.517944,70.941284 
	C298.933868,56.922001 296.444794,43.239807 293.812622,29.585196 
	C293.656067,28.772997 292.393188,27.647287 291.573822,27.583517 
	C288.510864,27.345135 285.418213,27.488197 282.372009,27.488197 
	C279.556183,42.372620 276.881744,56.509586 274.151642,70.940865 
	C277.291656,70.940865 280.064026,70.940865 283.150940,70.940865 
	C283.730316,68.016403 284.299713,65.142273 284.876831,62.229073 
	C287.101471,62.229073 289.043976,62.229073 291.185974,62.229073 
	C291.520782,64.372261 291.459778,66.500839 292.256348,68.235611 
	C292.831146,69.487328 294.546936,70.215103 296.675049,71.176949 
M105.410492,71.179619 
	C106.851044,71.080757 108.291595,70.981895 109.697090,70.885437 
	C112.338737,56.311642 114.903412,42.162533 117.515488,27.751892 
	C114.270073,27.751892 111.701012,27.751892 108.844650,27.751892 
	C107.460121,36.786224 106.111816,45.584141 104.763519,54.382061 
	C104.527779,54.373974 104.292038,54.365891 104.056297,54.357807 
	C102.622078,45.546146 101.187859,36.734482 99.745773,27.874535 
	C97.013680,27.874535 94.493073,27.874535 91.508789,27.874535 
	C94.154778,42.506248 96.712845,56.651798 99.340050,71.179680 
	C101.233078,71.179680 102.863861,71.179680 105.410492,71.179619 
M219.499954,28.092695 
	C213.096771,27.807564 206.693573,27.522432 200.238861,27.235006 
	C200.238861,42.285030 200.238861,56.549072 200.238861,70.835815 
	C206.882507,70.835815 213.270813,70.835815 219.647049,70.835815 
	C219.647049,68.734375 219.647049,66.980354 219.647049,64.724548 
	C216.316437,64.724548 213.231445,64.724548 210.062622,64.724548 
	C210.062622,60.119717 210.062622,56.023911 210.062622,51.807289 
	C212.545563,51.599804 214.778137,51.413239 217.086090,51.220379 
	C217.086090,48.991539 217.086090,47.215996 217.086090,45.181057 
	C214.667236,45.050568 212.411774,44.928894 210.081879,44.803204 
	C210.081879,41.105244 210.081879,37.715618 210.081879,33.854156 
	C213.445541,33.854156 216.527756,33.854156 219.772202,33.854156 
	C219.772202,31.890301 219.772202,30.405943 219.499954,28.092695 
M396.774750,61.479351 
	C396.774750,64.584290 396.774750,67.689224 396.774750,70.950806 
	C403.567261,70.950806 409.804260,70.950806 416.171692,70.950806 
	C416.171692,68.811966 416.171692,66.950729 416.171692,64.583710 
	C412.733673,64.583710 409.665558,64.583710 406.639160,64.583710 
	C406.639160,60.005604 406.639160,55.947277 406.639160,51.702785 
	C409.215729,51.541378 411.460541,51.400753 413.706757,51.260040 
	C413.706757,49.023273 413.706757,47.120453 413.706757,45.176800 
	C411.162079,45.028843 408.902222,44.897446 406.618835,44.764683 
	C406.618835,41.025997 406.618835,37.631504 406.618835,33.776932 
	C410.023010,33.776932 413.103180,33.776932 416.376709,33.776932 
	C416.269653,31.525715 416.185364,29.753460 416.094513,27.842810 
	C409.560089,27.842810 403.361877,27.842810 396.770142,27.842810 
	C396.770142,38.931713 396.770142,49.709072 396.774750,61.479351 
M56.048908,70.845657 
	C56.247375,60.426991 56.465767,50.008648 56.634056,39.589497 
	C56.697315,35.672760 56.644310,31.754150 56.644310,27.742344 
	C53.017082,27.742344 50.108509,27.742344 47.122292,27.742344 
	C47.122292,42.277405 47.122292,56.508621 47.122292,71.147141 
	C49.946980,71.147141 52.556377,71.147141 56.048908,70.845657 
M162.994537,48.500118 
	C162.994537,41.590042 162.994537,34.679970 162.994537,27.775658 
	C159.398682,27.775658 156.478134,27.775658 153.437744,27.775658 
	C153.437744,42.318031 153.437744,56.541634 153.437744,70.971436 
	C156.636856,70.971436 159.563110,70.971436 162.994492,70.971436 
	C162.994492,63.719406 162.994492,56.609680 162.994537,48.500118 
z"/>
<path fill="#FCFCFC" opacity="1.000000" stroke="none" 
	d="
M420.463745,82.930725 
	C423.244446,80.093651 426.450684,77.286957 429.743225,74.585464 
	C432.820587,72.060478 432.636627,70.741615 428.360962,68.576492 
	C427.967407,66.099342 428.033569,64.057610 428.475616,61.998711 
	C429.854858,61.994946 430.858215,62.008354 431.977539,62.408855 
	C432.682068,65.481079 433.270569,68.166206 433.876831,70.932220 
	C435.999207,70.932220 437.893890,70.932220 439.772675,70.932220 
	C440.274902,68.804832 440.722504,66.908890 441.538116,65.008919 
	C442.887543,65.006996 443.868927,65.009117 444.913330,65.454384 
	C444.976288,67.501907 444.976288,69.106285 444.976288,70.771805 
	C447.793427,70.771805 450.139709,70.771805 452.641235,70.771805 
	C452.641235,64.934387 452.641235,59.499401 452.954529,53.904076 
	C452.978790,51.145660 452.689789,48.547581 452.315735,45.558334 
	C452.217926,42.663139 452.205200,40.159111 452.556396,37.791016 
	C454.618439,38.950413 456.316559,39.973877 458.109558,41.458069 
	C458.204376,51.524384 458.204376,61.129963 458.204376,70.837120 
	C465.196625,70.837120 471.574402,70.837120 477.887634,70.837120 
	C477.887634,68.727325 477.887634,66.963722 477.887634,64.720909 
	C474.570343,64.720909 471.499725,64.720909 468.266235,64.720909 
	C468.266235,60.134083 468.266235,56.032867 468.266235,51.807739 
	C470.851288,51.591381 473.239136,51.391525 476.893707,51.085651 
	C475.695801,48.492085 474.862030,46.686996 474.033020,44.537907 
	C476.852356,42.161926 479.666962,40.129940 482.560730,38.553257 
	C482.639923,49.609592 482.639923,60.210629 482.639923,70.934860 
	C485.670197,70.934860 488.085907,70.934860 491.118469,70.934860 
	C491.118469,64.133812 491.118469,57.552277 491.118469,50.970741 
	C493.918884,56.195442 496.288788,61.339962 497.954071,66.703262 
	C499.402649,71.368736 502.052887,72.061157 506.039551,70.666428 
	C506.039551,56.234238 506.039551,41.992748 506.039551,27.915092 
	C503.293335,27.915092 500.900635,27.915092 498.163452,27.915092 
	C498.163452,34.095387 498.163452,39.836292 498.163452,45.577202 
	C495.502533,41.630955 493.343262,37.576607 492.005768,33.267204 
	C490.508057,28.441545 487.857666,26.423439 482.683411,27.442974 
	C481.206726,25.995958 480.122345,24.468922 478.644775,23.660370 
	C477.320587,22.935755 475.236420,22.316977 474.071045,22.873440 
	C472.124084,23.803162 470.642273,25.707008 468.528442,27.286608 
	C465.046234,27.372433 462.000183,27.372433 458.727936,27.372433 
	C458.468597,29.238037 458.275513,30.626961 457.703613,31.967907 
	C452.921143,28.468370 454.780518,22.299669 459.157410,19.423389 
	C460.578400,18.489599 461.724182,17.137123 462.995850,15.976141 
	C464.068176,15.920641 465.140472,15.865142 466.647278,16.247986 
	C469.267090,20.211290 470.869171,19.728552 471.994812,15.971407 
	C474.703156,15.912749 477.411469,15.854091 480.561279,16.270044 
	C482.623077,18.920158 483.883575,21.540958 485.927368,23.192369 
	C493.834869,29.581810 506.305542,24.811157 508.000519,16.006289 
	C519.936035,16.006289 531.871582,16.006289 544.084229,16.006289 
	C544.084229,38.253117 544.084229,60.329357 544.084229,83.007027 
	C503.066650,83.007027 461.996796,83.007027 420.463745,82.930725 
M526.718079,70.152100 
	C526.718079,58.384579 526.718079,46.617054 526.718079,34.870640 
	C529.213501,34.624615 531.008606,34.447632 532.899658,34.261189 
	C532.899658,31.986769 532.899658,29.907206 532.899658,27.849064 
	C525.222717,27.849064 517.847412,27.849064 510.483032,27.849064 
	C510.483032,30.195957 510.483032,32.127438 510.483032,34.284245 
	C512.671753,34.471329 514.623291,34.638134 517.131775,34.852554 
	C517.131775,46.975986 517.131775,59.028114 517.131775,71.308205 
	C520.522522,71.155869 523.336182,71.029465 526.718079,70.152100 
z"/>
<path fill="#F1F1F1" opacity="1.000000" stroke="none" 
	d="
M507.595581,15.889946 
	C506.305542,24.811157 493.834869,29.581810 485.927368,23.192369 
	C483.883575,21.540958 482.623077,18.920158 481.000854,16.378773 
	C482.717743,15.919689 484.436554,15.826488 486.608307,16.196463 
	C489.804474,18.425631 492.611755,21.660103 495.272919,21.544020 
	C497.926697,21.428259 500.433960,17.953793 503.005463,15.951891 
	C504.400543,15.892466 505.795593,15.833035 507.595581,15.889946 
z"/>
<path fill="#E5E5E5" opacity="1.000000" stroke="none" 
	d="
M458.014709,40.997337 
	C456.316559,39.973877 454.618439,38.950413 452.470062,37.428963 
	C451.676453,33.771767 451.333069,30.612566 450.989685,27.453369 
	C452.314056,23.848351 453.638397,20.243330 454.990417,16.275501 
	C457.390594,15.853298 459.763092,15.793900 462.565735,15.855322 
	C461.724182,17.137123 460.578400,18.489599 459.157410,19.423389 
	C454.780518,22.299669 452.921143,28.468370 457.816650,32.405670 
	C458.210602,35.593388 458.112671,38.295364 458.014709,40.997337 
z"/>
<path fill="#FEFEFE" opacity="1.000000" stroke="none" 
	d="
M502.546814,15.854141 
	C500.433960,17.953793 497.926697,21.428259 495.272919,21.544020 
	C492.611755,21.660103 489.804474,18.425631 487.027496,16.302786 
	C492.025208,15.882754 497.056671,15.819574 502.546814,15.854141 
z"/>
<path fill="#E5E5E5" opacity="1.000000" stroke="none" 
	d="
M471.590363,15.850983 
	C470.869171,19.728552 469.267090,20.211290 467.042908,16.331924 
	C468.397980,15.895200 469.791931,15.812880 471.590363,15.850983 
z"/>
<path fill="#FCFCFC" opacity="1.000000" stroke="none" 
	d="
M441.246704,105.759949 
	C446.218567,109.465088 447.515076,116.793175 443.605621,120.676506 
	C442.150146,122.122215 438.755432,122.739494 436.672150,122.170525 
	C433.401001,121.277122 431.888641,115.390320 433.178711,110.709946 
	C434.235992,106.874344 436.560547,104.665596 441.246704,105.759949 
z"/>
<path fill="#F1F1F1" opacity="1.000000" stroke="none" 
	d="
M329.313873,111.968597 
	C329.693542,113.447693 329.921875,114.545067 330.205322,115.907425 
	C328.333099,115.907425 326.730530,115.907425 324.408752,115.907425 
	C325.326447,112.683884 326.184601,109.669632 327.296631,105.763466 
	C328.113617,108.313255 328.638062,109.950073 329.313873,111.968597 
z"/>
<path fill="#3A3A3A" opacity="1.000000" stroke="none" 
	d="
M269.864685,64.898949 
	C269.868988,67.180489 269.868988,68.975731 269.868988,70.965622 
	C267.509308,70.965622 265.566101,70.965622 262.872070,70.965622 
	C262.464294,63.531780 262.053986,56.051483 261.643646,48.571186 
	C261.487427,48.535423 261.331177,48.499660 261.174957,48.463898 
	C259.814575,55.897163 258.454224,63.330425 257.060577,70.945648 
	C255.076370,70.945648 253.296356,70.945648 251.039993,70.945648 
	C249.555374,63.406147 248.054672,55.784920 246.553970,48.163696 
	C246.093796,48.207882 245.633636,48.252068 245.173462,48.296253 
	C245.173462,55.783890 245.173462,63.271523 245.173462,70.959068 
	C242.559937,70.959068 240.608307,70.959068 238.594360,70.959068 
	C238.594360,56.653938 238.594360,42.275379 238.594360,27.680801 
	C242.337753,27.680801 245.464050,27.680801 249.017502,27.680801 
	C250.445633,34.899361 251.882812,42.163685 253.319992,49.428005 
	C253.685486,49.475788 254.050980,49.523571 254.416473,49.571354 
	C256.001099,42.288826 257.585754,35.006302 259.168091,27.734287 
	C262.518219,27.734287 265.625671,27.734287 269.860413,27.734287 
	C269.860413,40.136658 269.860413,52.274658 269.864685,64.898949 
z"/>
<path fill="#393939" opacity="1.000000" stroke="none" 
	d="
M450.538940,27.467400 
	C451.333069,30.612566 451.676453,33.771767 452.106140,37.293026 
	C452.205200,40.159111 452.217926,42.663139 452.213623,46.001511 
	C452.344818,49.245369 452.493042,51.654892 452.641235,54.064411 
	C452.641235,59.499401 452.641235,64.934387 452.641235,70.771805 
	C450.139709,70.771805 447.793427,70.771805 444.976288,70.771805 
	C444.976288,69.106285 444.976288,67.501907 444.981476,64.989532 
	C444.986664,58.556911 444.986664,53.032284 444.986664,47.507660 
	C444.611633,47.460484 444.236603,47.413311 443.861603,47.366135 
	C442.964447,53.248409 442.067261,59.130680 441.170105,65.012955 
	C440.722504,66.908890 440.274902,68.804832 439.772675,70.932220 
	C437.893890,70.932220 435.999207,70.932220 433.876831,70.932220 
	C433.270569,68.166206 432.682068,65.481079 432.026611,62.001797 
	C430.985901,56.099640 430.012085,50.991642 429.038269,45.883644 
	C428.725403,45.952553 428.412567,46.021461 428.099701,46.090370 
	C428.099701,51.398872 428.099701,56.707378 428.099701,62.015881 
	C428.033569,64.057610 427.967407,66.099342 427.990631,68.570404 
	C426.038147,70.004807 423.996277,71.009880 421.260193,72.356659 
	C421.260193,56.795723 421.260193,42.576916 421.260193,27.913013 
	C424.863068,27.913013 428.081970,27.913013 431.697174,27.913013 
	C432.035675,29.131292 432.467896,30.686882 432.966339,33.022034 
	C434.092163,39.143032 435.151764,44.484463 436.211365,49.825893 
	C436.702850,49.812641 437.194305,49.799385 437.685760,49.786133 
	C438.396606,44.186523 439.107452,38.586918 439.818268,32.987312 
	C441.010437,26.990402 445.440796,27.033533 450.538940,27.467400 
z"/>
<path fill="#393939" opacity="1.000000" stroke="none" 
	d="
M147.225250,51.974545 
	C147.180923,54.793961 147.208420,57.123550 147.079880,59.444496 
	C146.607071,67.982140 142.149261,72.127625 133.681717,71.974571 
	C125.575661,71.828049 121.267822,67.618614 121.022522,59.182716 
	C120.829422,52.541649 120.800262,45.882984 121.047569,39.245152 
	C121.363976,30.752535 125.544289,26.908930 133.940598,26.879856 
	C142.472305,26.850313 146.573349,30.571247 147.040665,39.021614 
	C147.269821,43.165398 147.174103,47.327137 147.225250,51.974545 
M131.484909,63.534618 
	C135.514236,65.679214 137.034592,65.096535 137.163895,60.775681 
	C137.391403,53.172180 137.389282,45.550446 137.084061,37.952381 
	C137.026077,36.509350 135.117722,35.140652 134.063110,33.737659 
	C133.007538,35.138317 131.078049,36.515999 131.040512,37.943428 
	C130.823334,46.203121 131.052338,54.474548 131.484909,63.534618 
z"/>
<path fill="#3B3B3B" opacity="1.000000" stroke="none" 
	d="
M374.489197,50.987629 
	C374.542145,54.645401 374.229218,57.876114 374.806519,60.939030 
	C375.087006,62.427269 377.032959,63.601589 378.224976,64.918030 
	C379.394012,63.708393 381.164734,62.676067 381.586121,61.246109 
	C382.167847,59.272011 381.731995,56.998051 381.731995,54.590214 
	C380.622559,54.372658 379.530396,54.158482 378.198975,53.897396 
	C378.198975,52.333954 378.198975,50.723255 378.198975,48.784271 
	C382.130280,48.784271 386.027924,48.784271 390.316162,48.784271 
	C390.316162,56.043846 390.316162,63.262985 390.316162,71.265450 
	C388.027252,71.025848 385.811554,70.793907 382.116699,70.407127 
	C375.138947,75.381477 364.687378,70.917679 364.746185,58.885139 
	C364.777100,52.560749 364.473846,46.222481 364.795349,39.914631 
	C365.282257,30.361969 369.934326,26.374441 379.247345,26.953680 
	C387.417297,27.461824 390.902100,32.161106 390.264069,42.272583 
	C388.879211,42.360054 387.439728,42.487274 385.997681,42.531963 
	C384.526398,42.577553 383.052643,42.542042 381.308685,42.542042 
	C381.192108,40.890079 381.438934,39.456879 380.934052,38.374176 
	C380.152313,36.697647 378.857574,35.260334 377.780365,33.721581 
	C376.697540,35.314819 374.884216,36.819813 374.678925,38.519066 
	C374.202820,42.459991 374.503754,46.494781 374.489197,50.987629 
z"/>
<path fill="#393939" opacity="1.000000" stroke="none" 
	d="
M321.365784,34.192589 
	C321.365875,31.914490 321.365875,30.101702 321.365875,27.879066 
	C324.023987,27.879066 326.410126,27.879066 329.122314,27.879066 
	C329.122314,42.056713 329.122314,56.285240 329.122314,70.630188 
	C324.716370,72.309761 322.263885,70.964783 320.830475,66.254555 
	C319.222198,60.969868 316.816254,55.927921 313.974884,50.953320 
	C313.974884,57.505550 313.974884,64.057777 313.974884,70.886246 
	C311.225037,70.886246 308.815918,70.886246 306.054688,70.886246 
	C306.054688,56.584923 306.054688,42.253242 306.054688,27.901646 
	C310.346375,26.696920 313.043854,27.449991 314.492340,32.084492 
	C315.952087,36.754959 318.318970,41.141895 321.365723,45.593224 
	C321.365723,41.948116 321.365723,38.303009 321.365784,34.192589 
z"/>
<path fill="#373737" opacity="1.000000" stroke="none" 
	d="
M71.340248,61.047123 
	C71.340286,64.514931 71.340286,67.496178 71.340286,70.821289 
	C68.573387,70.821289 66.040047,70.821289 63.290421,70.821289 
	C63.290421,56.457584 63.290421,42.236797 63.290421,28.036928 
	C67.835976,26.493040 70.570351,27.501284 72.107048,32.262985 
	C73.667603,37.098633 76.047531,41.669849 78.871536,46.286129 
	C78.871536,40.162674 78.871536,34.039223 78.871536,27.707397 
	C81.709007,27.707397 83.982651,27.707397 86.620506,27.707397 
	C86.620506,42.099445 86.620506,56.450474 86.620506,70.774773 
	C82.108910,72.216423 79.620392,70.706001 78.219398,66.140640 
	C76.630409,60.962643 74.333435,56.001919 71.340210,51.047901 
	C71.340210,54.218788 71.340210,57.389675 71.340248,61.047123 
z"/>
<path fill="#3A3A3A" opacity="1.000000" stroke="none" 
	d="
M178.806183,51.966808 
	C178.825653,55.287670 178.457870,58.195667 179.017792,60.912468 
	C179.326721,62.411438 181.192627,63.589523 182.356628,64.912262 
	C183.265182,63.564301 184.568878,62.324932 184.977127,60.839478 
	C185.434769,59.174255 185.082275,57.286388 185.082275,55.246246 
	C188.416290,55.246246 191.328613,55.246246 194.226059,55.246246 
	C196.319611,67.924934 188.624222,74.770027 176.722885,70.953125 
	C171.768860,69.364319 169.323517,65.956879 169.074112,59.390331 
	C168.834351,53.077042 168.841339,46.743561 169.026993,40.427395 
	C169.325302,30.279119 173.870178,26.243406 183.815445,26.956461 
	C191.962479,27.540583 195.459854,32.705872 194.361588,42.920910 
	C192.973816,43.003876 191.527161,43.124664 190.078217,43.167404 
	C188.609024,43.210739 187.137589,43.176968 185.344208,43.176968 
	C185.227081,40.872993 185.475159,38.820789 184.911896,37.022743 
	C184.512695,35.748352 183.017120,34.817417 182.010925,33.733173 
	C180.983734,34.822926 179.159195,35.850601 179.068665,37.013283 
	C178.695099,41.811298 178.847260,46.650234 178.806183,51.966808 
z"/>
<path fill="#3A3A3A" opacity="1.000000" stroke="none" 
	d="
M349.778687,62.043293 
	C347.863800,62.015339 346.388733,62.015339 344.766357,62.015339 
	C344.112732,65.186600 343.522003,68.052773 342.928558,70.932106 
	C339.829041,70.932106 337.061340,70.932106 333.944366,70.932106 
	C336.724457,56.329674 339.447113,42.028748 342.147858,27.843050 
	C353.282837,26.657019 353.202179,26.671347 355.052002,37.086639 
	C357.027527,48.209423 359.176086,59.301472 361.325134,70.814194 
	C358.298523,70.814194 355.583710,70.814194 352.854645,70.814194 
	C351.975372,67.898056 351.096924,64.984650 349.778687,62.043293 
M348.979614,47.656082 
	C348.685699,46.175480 348.391815,44.694878 348.097900,43.214275 
	C347.788086,43.258297 347.478271,43.302319 347.168457,43.346344 
	C346.648895,47.407814 346.129364,51.469288 345.577972,55.779724 
	C347.263947,55.779724 348.581329,55.779724 350.071136,55.779724 
	C349.688171,53.085606 349.362701,50.795853 348.979614,47.656082 
z"/>
<path fill="#3A3A3A" opacity="1.000000" stroke="none" 
	d="
M296.214447,71.176758 
	C294.546936,70.215103 292.831146,69.487328 292.256348,68.235611 
	C291.459778,66.500839 291.520782,64.372261 291.185974,62.229073 
	C289.043976,62.229073 287.101471,62.229073 284.876831,62.229073 
	C284.299713,65.142273 283.730316,68.016403 283.150940,70.940865 
	C280.064026,70.940865 277.291656,70.940865 274.151642,70.940865 
	C276.881744,56.509586 279.556183,42.372620 282.372009,27.488197 
	C285.418213,27.488197 288.510864,27.345135 291.573822,27.583517 
	C292.393188,27.647287 293.656067,28.772997 293.812622,29.585196 
	C296.444794,43.239807 298.933868,56.922001 301.517944,70.941284 
	C299.594635,71.034882 298.134857,71.105911 296.214447,71.176758 
M289.929749,52.719578 
	C289.385468,49.321587 288.841187,45.923599 288.296906,42.525608 
	C287.979187,42.572762 287.661469,42.619911 287.343781,42.667065 
	C286.818695,47.026760 286.293640,51.386452 285.768555,55.746147 
	C286.233246,56.082043 286.697968,56.417942 287.162659,56.753838 
	C288.110474,55.712471 289.058289,54.671104 289.929749,52.719578 
z"/>
<path fill="#3B3B3B" opacity="1.000000" stroke="none" 
	d="
M104.952560,71.179649 
	C102.863861,71.179680 101.233078,71.179680 99.340050,71.179680 
	C96.712845,56.651798 94.154778,42.506248 91.508789,27.874535 
	C94.493073,27.874535 97.013680,27.874535 99.745773,27.874535 
	C101.187859,36.734482 102.622078,45.546146 104.056297,54.357807 
	C104.292038,54.365891 104.527779,54.373974 104.763519,54.382061 
	C106.111816,45.584141 107.460121,36.786224 108.844650,27.751892 
	C111.701012,27.751892 114.270073,27.751892 117.515488,27.751892 
	C114.903412,42.162533 112.338737,56.311642 109.697090,70.885437 
	C108.291595,70.981895 106.851044,71.080757 104.952560,71.179649 
z"/>
<path fill="#3B3B3B" opacity="1.000000" stroke="none" 
	d="
M219.636078,28.507141 
	C219.772202,30.405943 219.772202,31.890301 219.772202,33.854156 
	C216.527756,33.854156 213.445541,33.854156 210.081879,33.854156 
	C210.081879,37.715618 210.081879,41.105244 210.081879,44.803204 
	C212.411774,44.928894 214.667236,45.050568 217.086090,45.181057 
	C217.086090,47.215996 217.086090,48.991539 217.086090,51.220379 
	C214.778137,51.413239 212.545563,51.599804 210.062622,51.807289 
	C210.062622,56.023911 210.062622,60.119717 210.062622,64.724548 
	C213.231445,64.724548 216.316437,64.724548 219.647049,64.724548 
	C219.647049,66.980354 219.647049,68.734375 219.647049,70.835815 
	C213.270813,70.835815 206.882507,70.835815 200.238861,70.835815 
	C200.238861,56.549072 200.238861,42.285030 200.238861,27.235006 
	C206.693573,27.522432 213.096771,27.807564 219.636078,28.507141 
z"/>
<path fill="#353535" opacity="1.000000" stroke="none" 
	d="
M396.772461,60.982887 
	C396.770142,49.709072 396.770142,38.931713 396.770142,27.842810 
	C403.361877,27.842810 409.560089,27.842810 416.094513,27.842810 
	C416.185364,29.753460 416.269653,31.525715 416.376709,33.776932 
	C413.103180,33.776932 410.023010,33.776932 406.618835,33.776932 
	C406.618835,37.631504 406.618835,41.025997 406.618835,44.764683 
	C408.902222,44.897446 411.162079,45.028843 413.706757,45.176800 
	C413.706757,47.120453 413.706757,49.023273 413.706757,51.260040 
	C411.460541,51.400753 409.215729,51.541378 406.639160,51.702785 
	C406.639160,55.947277 406.639160,60.005604 406.639160,64.583710 
	C409.665558,64.583710 412.733673,64.583710 416.171692,64.583710 
	C416.171692,66.950729 416.171692,68.811966 416.171692,70.950806 
	C409.804260,70.950806 403.567261,70.950806 396.774750,70.950806 
	C396.774750,67.689224 396.774750,64.584290 396.772461,60.982887 
z"/>
<path fill="#3E3E3E" opacity="1.000000" stroke="none" 
	d="
M55.607346,70.996399 
	C52.556377,71.147141 49.946980,71.147141 47.122292,71.147141 
	C47.122292,56.508621 47.122292,42.277405 47.122292,27.742344 
	C50.108509,27.742344 53.017082,27.742344 56.644310,27.742344 
	C56.644310,31.754150 56.697315,35.672760 56.634056,39.589497 
	C56.465767,50.008648 56.247375,60.426991 55.607346,70.996399 
z"/>
<path fill="#3B3B3B" opacity="1.000000" stroke="none" 
	d="
M162.994507,49.000038 
	C162.994492,56.609680 162.994492,63.719406 162.994492,70.971436 
	C159.563110,70.971436 156.636856,70.971436 153.437744,70.971436 
	C153.437744,56.541634 153.437744,42.318031 153.437744,27.775658 
	C156.478134,27.775658 159.398682,27.775658 162.994537,27.775658 
	C162.994537,34.679970 162.994537,41.590042 162.994507,49.000038 
z"/>
<path fill="#F1F1F1" opacity="1.000000" stroke="none" 
	d="
M439.401489,32.990097 
	C439.107452,38.586918 438.396606,44.186523 437.685760,49.786133 
	C437.194305,49.799385 436.702850,49.812641 436.211365,49.825893 
	C435.151764,44.484463 434.092163,39.143032 433.089600,33.395416 
	C435.092651,32.990448 437.038666,32.991661 439.401489,32.990097 
z"/>
<path fill="#373737" opacity="1.000000" stroke="none" 
	d="
M482.904541,27.675674 
	C487.857666,26.423439 490.508057,28.441545 492.005768,33.267204 
	C493.343262,37.576607 495.502533,41.630955 498.163452,45.577202 
	C498.163452,39.836292 498.163452,34.095387 498.163452,27.915092 
	C500.900635,27.915092 503.293335,27.915092 506.039551,27.915092 
	C506.039551,41.992748 506.039551,56.234238 506.039551,70.666428 
	C502.052887,72.061157 499.402649,71.368736 497.954071,66.703262 
	C496.288788,61.339962 493.918884,56.195442 491.118469,50.970741 
	C491.118469,57.552277 491.118469,64.133812 491.118469,70.934860 
	C488.085907,70.934860 485.670197,70.934860 482.639923,70.934860 
	C482.639923,60.210629 482.639923,49.609592 482.693420,38.101295 
	C482.799469,34.021252 482.852020,30.848463 482.904541,27.675674 
z"/>
<path fill="#3A3A3A" opacity="1.000000" stroke="none" 
	d="
M458.109558,41.458073 
	C458.112671,38.295364 458.210602,35.593388 458.195496,32.453651 
	C458.275513,30.626961 458.468597,29.238037 458.727936,27.372433 
	C462.000183,27.372433 465.046234,27.372433 468.891052,27.456543 
	C472.380096,27.540653 475.070343,27.540653 478.525391,27.540653 
	C477.870911,30.310362 477.420532,32.216244 476.530731,34.075485 
	C473.734711,34.066063 471.378113,34.103283 468.744324,34.106659 
	C468.368378,34.388657 468.269623,34.704510 468.122375,35.430092 
	C468.109619,37.212765 468.145325,38.585705 468.097961,40.389450 
	C468.097992,42.188492 468.181122,43.556736 468.261627,44.881912 
	C470.503937,44.881912 472.266113,44.881912 474.028290,44.881908 
	C474.862030,46.686996 475.695801,48.492085 476.893707,51.085651 
	C473.239136,51.391525 470.851288,51.591381 468.266235,51.807739 
	C468.266235,56.032867 468.266235,60.134083 468.266235,64.720909 
	C471.499725,64.720909 474.570343,64.720909 477.887634,64.720909 
	C477.887634,66.963722 477.887634,68.727325 477.887634,70.837120 
	C471.574402,70.837120 465.196625,70.837120 458.204376,70.837120 
	C458.204376,61.129963 458.204376,51.524384 458.109558,41.458073 
z"/>
<path fill="#3E3E3E" opacity="1.000000" stroke="none" 
	d="
M526.433960,70.527573 
	C523.336182,71.029465 520.522522,71.155869 517.131775,71.308205 
	C517.131775,59.028114 517.131775,46.975986 517.131775,34.852554 
	C514.623291,34.638134 512.671753,34.471329 510.483032,34.284245 
	C510.483032,32.127438 510.483032,30.195957 510.483032,27.849064 
	C517.847412,27.849064 525.222717,27.849064 532.899658,27.849064 
	C532.899658,29.907206 532.899658,31.986769 532.899658,34.261189 
	C531.008606,34.447632 529.213501,34.624615 526.718079,34.870640 
	C526.718079,46.617054 526.718079,58.384579 526.433960,70.527573 
z"/>
<path fill="#D9D9D9" opacity="1.000000" stroke="none" 
	d="
M474.033020,44.537910 
	C472.266113,44.881912 470.503937,44.881912 468.261627,44.881912 
	C468.181122,43.556736 468.097992,42.188492 468.473328,40.418827 
	C472.742249,39.594505 475.815582,38.166466 476.970154,34.122124 
	C477.420532,32.216244 477.870911,30.310362 478.525391,27.540653 
	C475.070343,27.540653 472.380096,27.540653 469.327240,27.370718 
	C470.642273,25.707008 472.124084,23.803162 474.071045,22.873440 
	C475.236420,22.316977 477.320587,22.935755 478.644775,23.660370 
	C480.122345,24.468922 481.206726,25.995958 482.683411,27.442974 
	C482.852020,30.848463 482.799469,34.021252 482.614258,37.645996 
	C479.666962,40.129940 476.852356,42.161926 474.033020,44.537910 
z"/>
<path fill="#F1F1F1" opacity="1.000000" stroke="none" 
	d="
M441.538116,65.008919 
	C442.067261,59.130680 442.964447,53.248409 443.861603,47.366135 
	C444.236603,47.413311 444.611633,47.460484 444.986664,47.507660 
	C444.986664,53.032284 444.986664,58.556911 444.918518,64.546387 
	C443.868927,65.009117 442.887543,65.006996 441.538116,65.008919 
z"/>
<path fill="#E5E5E5" opacity="1.000000" stroke="none" 
	d="
M428.475616,61.998711 
	C428.099701,56.707378 428.099701,51.398872 428.099701,46.090370 
	C428.412567,46.021461 428.725403,45.952553 429.038269,45.883644 
	C430.012085,50.991642 430.985901,56.099640 431.910614,61.614700 
	C430.858215,62.008354 429.854858,61.994946 428.475616,61.998711 
z"/>
<path fill="#E5E5E5" opacity="1.000000" stroke="none" 
	d="
M452.954529,53.904076 
	C452.493042,51.654892 452.344818,49.245369 452.298706,46.392677 
	C452.689789,48.547581 452.978790,51.145660 452.954529,53.904076 
z"/>
<path fill="#FCFCFC" opacity="1.000000" stroke="none" 
	d="
M131.307617,63.138313 
	C131.052338,54.474548 130.823334,46.203121 131.040512,37.943428 
	C131.078049,36.515999 133.007538,35.138317 134.063110,33.737656 
	C135.117722,35.140652 137.026077,36.509350 137.084061,37.952381 
	C137.389282,45.550446 137.391403,53.172180 137.163895,60.775681 
	C137.034592,65.096535 135.514236,65.679214 131.307617,63.138313 
z"/>
<path fill="#F1F1F1" opacity="1.000000" stroke="none" 
	d="
M349.008423,48.081093 
	C349.362701,50.795853 349.688171,53.085606 350.071136,55.779724 
	C348.581329,55.779724 347.263947,55.779724 345.577972,55.779724 
	C346.129364,51.469288 346.648895,47.407814 347.168457,43.346344 
	C347.478271,43.302319 347.788086,43.258297 348.097900,43.214275 
	C348.391815,44.694878 348.685699,46.175480 349.008423,48.081093 
z"/>
<path fill="#E5E5E5" opacity="1.000000" stroke="none" 
	d="
M289.967896,53.174660 
	C289.058289,54.671104 288.110474,55.712471 287.162659,56.753838 
	C286.697968,56.417942 286.233246,56.082043 285.768555,55.746147 
	C286.293640,51.386452 286.818695,47.026760 287.343781,42.667065 
	C287.661469,42.619911 287.979187,42.572762 288.296906,42.525608 
	C288.841187,45.923599 289.385468,49.321587 289.967896,53.174660 
z"/>
<path fill="#FEFEFE" opacity="1.000000" stroke="none" 
	d="
M476.530731,34.075485 
	C475.815582,38.166466 472.742249,39.594505 468.556396,39.988029 
	C468.145325,38.585705 468.109619,37.212765 468.295715,35.316853 
	C468.723938,34.605701 468.891937,34.387909 469.021515,34.140503 
	C471.378113,34.103283 473.734711,34.066063 476.530731,34.075485 
z"/>
<path fill="#D9D9D9" opacity="1.000000" stroke="none" 
	d="
M468.744324,34.106655 
	C468.891937,34.387909 468.723938,34.605701 468.344177,34.907120 
	C468.269623,34.704510 468.368378,34.388657 468.744324,34.106655 
z"/>
</svg>